Coordinates
version=1
nRows=16
nColumns=40
inDegrees=yes

Units are S.I. units (second, meters, Newtons, ...)
Angles are in degrees.

endheader
time	pelvis_tilt	pelvis_list	pelvis_rotation	pelvis_tx	pelvis_ty	pelvis_tz	hip_flexion_r	hip_adduction_r	hip_rotation_r	knee_angle_r	knee_angle_r_beta	ankle_angle_r	subtalar_angle_r	mtp_angle_r	hip_flexion_l	hip_adduction_l	hip_rotation_l	knee_angle_l	knee_angle_l_beta	ankle_angle_l	subtalar_angle_l	mtp_angle_l	lumbar_extension	lumbar_bending	lumbar_rotation	arm_flex_r	arm_add_r	arm_rot_r	elbow_flex_r	pro_sup_r	wrist_flex_r	wrist_dev_r	arm_flex_l	arm_add_l	arm_rot_l	elbow_flex_l	pro_sup_l	wrist_flex_l	wrist_dev_l
     40.65500000	     -7.03439267	     -6.85402189	      2.03313092	      1.05325013	      0.90989834	      0.47333625	     -0.50257423	      5.07325968	    -16.01513987	     10.67130228	     10.67130228	     18.99498320	      4.49546550	     -1.55748183	     37.10391560	     -8.65643116	      2.19430897	     21.86357478	     21.86357478	      5.45490848	     -7.97520780	     10.36473261	    -10.41515113	      5.09677907	      3.56712723	     46.74985637	    -15.66194377	      2.97699998	     98.54064933	     44.27579501	      0.00000000	      0.00000000	    -16.54490275	     -6.25170513	      4.11189719	     29.79534260	     44.50068299	      0.00000000	      0.00000000
     40.66635714	     -7.08349640	     -6.84335878	      1.93482665	      1.05451561	      0.90813090	      0.47133725	     -0.94863881	      4.86329145	    -15.84097628	     11.02759842	     11.02759842	     19.60826040	      4.51650710	     -1.42624091	     36.85777434	     -8.57121115	      1.68320190	     22.26371697	     22.26371697	      4.12825094	     -8.97599264	      9.03026628	    -10.21502296	      5.09597657	      3.45325469	     47.57232007	    -15.18772271	      3.02549480	     99.88888169	     44.25304849	      0.00000000	      0.00000000	    -17.14064388	     -6.12981302	      4.27963375	     29.67479493	     44.49055543	      0.00000000	      0.00000000
     40.67771429	     -7.11753850	     -6.69256683	      1.79383047	      1.05587696	      0.90671914	      0.46921079	     -1.49167672	      4.50545239	    -15.57832936	     11.21465136	     11.21465136	     20.00068964	      4.53854082	     -1.46667703	     36.66112390	     -8.41507886	      1.08732483	     23.00743389	     23.00743389	      3.41753579	     -9.61604461	      8.77093162	     -9.96222459	      4.93381877	      3.55440918	     48.15448647	    -15.01135596	      2.96863008	    100.39793825	     44.24537549	      0.00000000	      0.00000000	    -17.45044480	     -6.06464013	      4.32645700	     29.52861227	     44.48462853	      0.00000000	      0.00000000
     40.68907143	     -7.05571040	     -6.63911034	      1.75365210	      1.05708397	      0.90549633	      0.46696697	     -1.87068678	      4.18065183	    -15.43221992	     11.90713185	     11.90713185	     20.46691904	      4.39851143	     -1.53831292	     36.50999590	     -8.26651240	      0.94591559	     24.00669305	     24.00669305	      2.69324209	    -10.52014214	      8.01731085	     -9.95482201	      4.86973973	      3.34701580	     48.66389694	    -14.43559829	      2.96484139	    101.53184868	     44.21961033	      0.00000000	      0.00000000	    -17.65268012	     -5.95534609	      4.42488517	     29.27904033	     44.47817893	      0.00000000	      0.00000000
     40.70042857	     -7.06139376	     -6.50309230	      1.66427074	      1.05832654	      0.90461997	      0.46454217	     -2.05255784	      3.69486424	    -15.30917034	     12.85555199	     12.85555199	     21.05011334	      4.38238303	     -1.00201127	     36.05460381	     -7.97283891	      1.04536196	     24.31325199	     24.31325199	      0.44285868	    -12.30842370	      3.58979122	     -9.85657449	      4.74644352	      3.70781216	     48.23634905	    -14.47013674	      2.32243625	    103.76960845	     44.24332051	      0.00000000	      0.00000000	    -17.21401667	     -5.94021284	      4.84927722	     28.31028256	     44.52604046	      0.00000000	      0.00000000
     40.71178571	     -6.94509307	     -6.32606461	      1.56298316	      1.05957108	      0.90444332	      0.46212669	     -2.49430047	      3.21853419	    -15.10671023	     13.47455529	     13.47455529	     21.08566296	      4.25787821	     -1.10368908	     35.78952557	     -7.74307010	      0.93652759	     25.37528464	     25.37528464	      0.53214130	    -12.82343647	      3.39445953	     -9.88561444	      4.52514231	      3.62493345	     48.26086659	    -14.13462887	      2.40022879	    104.08423908	     44.23414734	      0.00000000	      0.00000000	    -17.11483851	     -5.91436190	      4.88678110	     28.24568836	     44.52655246	      0.00000000	      0.00000000
     40.72314286	     -7.03473182	     -6.23603908	      1.47601178	      1.06027247	      0.90412854	      0.45965341	     -2.07644049	      2.66085216	    -14.93201388	     15.26441176	     15.26441176	     21.18285239	      3.73885244	     -1.63734676	     35.80763829	     -7.52941442	      1.08371783	     26.45134623	     26.45134623	      0.85498964	    -13.37947755	      3.29936323	     -9.82208481	      4.46944454	      3.26741103	     48.18833507	    -13.48820558	      2.41893067	    105.23145353	     44.20863990	      0.00000000	      0.00000000	    -16.87503050	     -5.83540458	      4.99548112	     27.88728942	     44.53133527	      0.00000000	      0.00000000
     40.73450000	     -7.01973862	     -6.08809840	      1.35593973	      1.06104183	      0.90455263	      0.45714497	     -1.76715510	      2.05137939	    -14.73298465	     17.00638783	     17.00638783	     20.92352643	      3.17876735	     -2.25638851	     35.57824069	     -7.28693857	      1.16042746	     27.33813721	     27.33813721	      1.48144558	    -13.73210551	      3.39274582	     -9.86417285	      4.29155563	      3.22489970	     47.60304831	    -13.21660284	      2.35095422	    106.11143012	     44.19417876	      0.00000000	      0.00000000	    -16.35253750	     -5.85334512	      5.07219578	     27.51596447	     44.54859098	      0.00000000	      0.00000000
     40.74585714	     -6.99416057	     -6.00313663	      1.19623748	      1.06171341	      0.90548083	      0.45474621	     -1.34017788	      1.52134250	    -14.39697849	     18.85985180	     18.85985180	     19.91605854	      2.15608710	     -4.26042148	     35.30988326	     -7.13203577	      1.21485111	     28.20159627	     28.20159627	      2.87018366	    -13.70705960	      4.86420078	     -9.94264131	      4.16771123	      3.83567295	     46.30055532	    -13.59706611	      1.68347817	    107.91108026	     44.20700288	      0.00000000	      0.00000000	    -15.06902090	     -5.93528329	      5.29795044	     26.22884972	     44.61263038	      0.00000000	      0.00000000
     40.75721429	     -6.99166064	     -5.91332158	      1.01116233	      1.06221803	      0.90667607	      0.45238127	     -0.59980432	      0.93036041	    -14.10708849	     21.19743871	     21.19743871	     18.75690434	      0.91468576	     -6.20172637	     34.94754272	     -7.02905709	      1.06370637	     28.82497754	     28.82497754	      4.05670438	    -13.49133740	      5.53547043	    -10.01060687	      4.04232315	      3.88024838	     45.28728627	    -13.47485866	      1.68101539	    108.56564610	     44.24032872	      0.00000000	      0.00000000	    -14.17309112	     -5.95823591	      5.48493930	     25.85242741	     44.67417033	      0.00000000	      0.00000000
     40.76857143	     -6.91925560	     -5.82769532	      0.77432420	      1.06269013	      0.90826222	      0.45011256	      0.35773530	      0.24683510	    -13.97483327	     24.09838343	     24.09838343	     17.92415568	     -0.03060208	     -6.74560989	     34.33152737	     -6.97030566	      0.80627711	     29.11268447	     29.11268447	      4.88126095	    -13.34754403	      5.20138696	    -10.13786043	      3.91015907	      3.73740972	     44.24165777	    -13.12577891	      1.96984868	    108.65141203	     44.23104485	      0.00000000	      0.00000000	    -13.52055392	     -6.07468657	      5.48761787	     25.98392880	     44.69428128	      0.00000000	      0.00000000
     40.77992857	     -7.02819855	     -5.79914867	      0.48468193	      1.06280959	      0.90983816	      0.44809324	      1.86402013	     -0.37278219	    -13.68211621	     27.51058503	     27.51058503	     16.78981575	     -1.58412935	     -7.45600372	     33.77298658	     -7.01803801	      0.41868942	     29.09631566	     29.09631566	      5.68107929	    -12.95731510	      4.95415135	    -10.08989127	      3.81280261	      3.65356287	     42.97441704	    -12.97776937	      2.24176637	    108.81659402	     44.22098503	      0.00000000	      0.00000000	    -12.76248587	     -6.22860692	      5.46817590	     26.13221320	     44.72224518	      0.00000000	      0.00000000
     40.79128571	     -7.10046988	     -5.74790275	      0.14174536	      1.06282399	      0.91160905	      0.44630016	      3.54779683	     -0.99310648	    -13.29392504	     31.20970719	     31.20970719	     15.43118679	     -3.48950287	     -8.07007880	     33.09383973	     -7.11353750	     -0.16813989	     28.94625459	     28.94625459	      6.44874048	    -12.43124754	      4.67752264	    -10.08949662	      3.65922488	      3.62935187	     41.52163342	    -12.87700519	      2.56207127	    108.89745679	     44.21089862	      0.00000000	      0.00000000	    -11.91995943	     -6.44797193	      5.42414233	     26.34429364	     44.75461925	      0.00000000	      0.00000000
     40.80264286	     -7.20948529	     -5.78313734	     -0.23072519	      1.06265550	      0.91337947	      0.44482773	      5.46793561	     -1.38614599	    -12.66048544	     35.07834666	     35.07834666	     13.77326450	     -6.24727026	     -8.63159015	     32.43455330	     -7.37176432	     -0.92224869	     28.74295718	     28.74295718	      7.21459718	    -11.57554144	      4.29502332	    -10.04877533	      3.60878112	      3.76768363	     39.79737658	    -12.99034486	      2.87695182	    109.07695332	     44.20564196	      0.00000000	      0.00000000	    -10.91952281	     -6.70944622	      5.34125532	     26.67186427	     44.80498564	      0.00000000	      0.00000000
     40.81400000	     -7.24063928	     -5.60606526	     -0.63916515	      1.06237089	      0.91525752	      0.44337867	      7.50978326	     -2.16080232	    -12.39128421	     39.27334257	     39.27334257	     12.36355278	     -8.27368887	     -8.75182468	     31.51571657	     -7.40819637	     -1.80499363	     28.25030086	     28.25030086	      7.80763507	    -10.84880285	      3.95408482	    -10.10338336	      3.29833899	      3.62935763	     38.16232606	    -12.81327828	      3.31461349	    108.84944655	     44.19905284	      0.00000000	      0.00000000	    -10.02161976	     -7.05656247	      5.26792928	     27.01663809	     44.83943757	      0.00000000	      0.00000000
     40.82535714	     -7.33325027	     -5.45127767	     -1.05541696	      1.06185306	      0.91698182	      0.44217640	      9.76761356	     -2.82073208	    -12.02015455	     43.54248104	     43.54248104	     10.98118466	    -10.68768216	     -8.45419130	     30.65602432	     -7.49664986	     -2.79147525	     27.70678680	     27.70678680	      8.32730017	     -9.97561682	      3.52831962	    -10.08545621	      3.01420313	      3.48064588	     36.39701228	    -12.72909920	      3.80463754	    108.48559423	     44.19396926	      0.00000000	      0.00000000	     -9.08844683	     -7.46790906	      5.16514737	     27.46691509	     44.87758835	      0.00000000	      0.00000000
